<svg id="Calque_1" data-name="Calque 1" xmlns="http://www.w3.org/2000/svg" viewBox="0 0 256.12 255.86"  width="100%" height="100%"><defs><style>.cls-1{fill:#fff;}</style></defs><title>plant-monochrome</title><g id="LSISnS.tif"><path class="cls-1" d="M163.51,359.63c8.89-3,17.66-6.32,27.12-7.26a64.94,64.94,0,0,1,32.65,5c17.18,7.4,29.18,20,36.14,37.29a67.48,67.48,0,0,1,4.48,28.12c-.15,3.56.67,5.8,4.24,6.82a29.48,29.48,0,0,1,4.36,2.12v-2.18q0-44.74-.06-89.48a5.66,5.66,0,0,0-1.45-3.4c-2.56-2.85-5.32-5.5-8-8.23l3.56-1.92,1.87-4.51,3.82,3.59c.27-4.77.14-9.34.85-13.77a30.2,30.2,0,0,1,11.84-19.94,3.65,3.65,0,0,1,.5,1.06c.51,3.91,1.3,4.7,5.18,5-6.87,5.72-9.75,13.06-9.66,22,.18,18.58.05,37.17.05,55.75v3.18c3.13-2.32,6-4.36,8.75-6.59.67-.55.88-1.74,1.19-2.67,3.18-9.87,5.92-19.9,9.59-29.57,7.24-19.11,21.26-30.71,41.18-35,10-2.18,19.86-1.13,29.48,2.19,11.28,3.89,22.54,7.86,33.8,11.82,4,1.4,5.46,5.09,2.71,7.3-1.4,1.13-3.67,1.16-5.54,1.69-13.58,0-27.15-.06-40.73,0a36.6,36.6,0,0,0-6.93.61c-17.95,3.47-32.15,12.66-41.95,28.19-2.22,3.51-3.6,7.56-5.37,11.36v0l-.62.55a195.14,195.14,0,0,1-23.85,19.65,3.73,3.73,0,0,0-1.74,3.49q.07,28.37,0,56.73v2.82h-8.5c0-2.8-.09-5.53,0-8.25a2.4,2.4,0,0,0-1.67-2.63c-3-1.43-5.91-3-8.86-4.52a10.6,10.6,0,0,1-.47-1.41,92.54,92.54,0,0,0-58.43-69A89.42,89.42,0,0,0,168.17,360,43.14,43.14,0,0,1,163.51,359.63Z" transform="translate(-152.99 -195.52)"/><path class="cls-1" d="M268.42,322l-1.87,4.51c-2.71-1.62-5.46-3.16-8.12-4.85-11.6-7.38-23.91-13.67-34.37-22.8-6.59-5.75-13-11.76-17.58-19.2-7.36-12-14-24.47-21-36.73,1-.1,2.18-.55,3.08-.24,12.37,4.26,25.17,7.64,37,13.17,22.95,10.76,36.58,29.4,41.44,54.31C267.72,314.1,268,318.09,268.42,322Z" transform="translate(-152.99 -195.52)"/><path class="cls-1" d="M163.51,359.63a43.14,43.14,0,0,0,4.66.34,89.42,89.42,0,0,1,34.93,5.64,92.11,92.11,0,0,1,58.43,69A10.6,10.6,0,0,0,262,436c-3.58-2.32-7.35-4.4-10.71-7-13.19-10.23-26-20.91-39.43-30.89C195.55,385.93,177.33,377.34,158,371a19.31,19.31,0,0,1-2.11-.7c-1.77-.83-3-2.05-2.93-4.2a4.09,4.09,0,0,1,3-4.09C158.47,361.16,161,360.43,163.51,359.63Z" transform="translate(-152.99 -195.52)"/><path class="cls-1" d="M290.61,298c-3.88-.35-4.67-1.14-5.18-5a3.65,3.65,0,0,0-.5-1.06c.17-4.15.44-8.3.47-12.44.12-15.64,3.4-30.67,8.64-45.32q6.15-17.24,12.35-34.44a16,16,0,0,1,.63-1.62,4.19,4.19,0,0,1,8,1.34c.43,6,.95,11.95,1.2,17.94.36,8.56,1.12,17.17.62,25.69-1.12,18.86-8.27,35.43-20.79,49.62C294.41,294.6,292.44,296.26,290.61,298Z" transform="translate(-152.99 -195.52)"/><path class="cls-1" d="M185.48,243c7,12.26,13.64,24.7,21,36.73,4.55,7.44,11,13.45,17.58,19.2,10.46,9.13,22.77,15.42,34.37,22.8,2.66,1.69,5.41,3.23,8.12,4.85L263,328.47c-2.28-.3-4.55-.74-6.85-.86a74.43,74.43,0,0,1-66.79-52.46c-2.67-8.73-4.32-17.79-6.27-26.73C182.6,246.25,182.52,243.83,185.48,243Z" transform="translate(-152.99 -195.52)"/><path class="cls-1" d="M307.18,368.18c1.77-3.8,3.15-7.85,5.37-11.36,9.8-15.53,24-24.72,41.95-28.19a36.6,36.6,0,0,1,6.93-.61c13.58,0,27.15,0,40.73,0-4.8.8-9.6,1.58-14.4,2.39a165.81,165.81,0,0,0-46.11,15.27,171.25,171.25,0,0,0-33.44,21.83A7.78,7.78,0,0,1,307.18,368.18Z" transform="translate(-152.99 -195.52)"/></g></svg>